# Blender 3.6.2
# www.blender.org
mtllib flame_cage.mtl
o Cage
v 0.084258 0.106792 -0.160002
v 0.086274 -0.155070 -0.151276
v 0.105353 0.091552 0.058352
v 0.092566 -0.145593 0.052065
v -0.085904 0.106578 -0.159846
v -0.086233 -0.157338 -0.153529
v -0.106990 0.092181 0.058779
v -0.091652 -0.149239 0.054293
v -0.107197 -0.180170 -0.102106
v -0.110288 -0.185981 -0.028199
v -0.102517 -0.169206 0.023773
v 0.049382 -0.155291 -0.148839
v 0.000260 -0.154332 -0.146176
v -0.049153 -0.157117 -0.150714
v 0.086439 0.050605 -0.164825
v 0.086110 -0.025513 -0.161028
v 0.089970 -0.101069 -0.161055
v -0.105639 -0.100177 0.063147
v -0.108002 -0.027862 0.083524
v -0.108353 0.042995 0.067954
v 0.106690 0.042854 0.067856
v 0.106241 -0.027870 0.083517
v 0.103552 -0.096941 0.061091
v -0.089390 0.050144 -0.166823
v -0.088121 -0.027165 -0.161870
v -0.090712 -0.103532 -0.160863
v 0.063453 0.110592 0.067125
v -0.000786 0.108931 0.063460
v -0.064788 0.109986 0.066861
v 0.094165 0.118074 -0.117531
v 0.105639 0.119778 -0.050269
v 0.113442 0.108666 0.016004
v -0.051775 -0.158868 0.063201
v 0.000551 -0.163572 0.067990
v 0.051773 -0.155901 0.061648
v -0.115096 0.108756 0.016084
v -0.107313 0.119810 -0.050255
v -0.095812 0.118023 -0.117486
v -0.052091 0.120116 -0.176771
v -0.000798 0.117221 -0.174139
v 0.050484 0.120253 -0.176890
v 0.102790 -0.162658 0.021414
v 0.110299 -0.185336 -0.026542
v 0.105940 -0.178795 -0.099041
v 0.056900 0.150546 -0.128561
v -0.000825 0.150494 -0.128151
v -0.058549 0.150546 -0.128561
v 0.063313 0.149543 -0.052755
v -0.000825 0.150562 -0.052359
v -0.064963 0.149543 -0.052755
v 0.063582 0.132301 0.014906
v -0.000824 0.134468 0.011292
v -0.065230 0.132359 0.014947
v 0.055942 -0.097275 0.080931
v 0.057041 -0.030040 0.102730
v 0.057970 0.044564 0.087122
v -0.000353 -0.104227 0.095284
v -0.000824 -0.038069 0.119999
v -0.000796 0.040154 0.090596
v -0.057239 -0.098834 0.082412
v -0.058720 -0.030026 0.102737
v -0.059533 0.044448 0.087104
v -0.136053 -0.116369 0.025760
v -0.131300 -0.029570 0.026366
v -0.136424 0.057482 0.023263
v -0.144025 -0.132073 -0.035479
v -0.128806 -0.033472 -0.044636
v -0.126012 0.059393 -0.050312
v -0.122071 -0.117158 -0.112118
v -0.114851 -0.028704 -0.117077
v -0.112802 0.058688 -0.123064
v -0.055741 -0.194697 -0.099279
v -0.000011 -0.200138 -0.097818
v 0.055281 -0.193566 -0.097313
v -0.055169 -0.212664 -0.027266
v 0.000419 -0.226125 -0.028016
v 0.056833 -0.214094 -0.024599
v -0.051131 -0.193328 0.026571
v 0.001526 -0.206050 0.029768
v 0.053224 -0.191288 0.027097
v 0.119912 -0.115694 -0.111389
v 0.112871 -0.028024 -0.116687
v 0.111048 0.058755 -0.122913
v 0.141445 -0.128663 -0.036467
v 0.127144 -0.033414 -0.044634
v 0.124362 0.059393 -0.050312
v 0.132771 -0.109708 0.021815
v 0.129750 -0.029454 0.026289
v 0.134775 0.057482 0.023263
v -0.051741 -0.101927 -0.180660
v -0.051614 -0.024984 -0.189178
v -0.053543 0.054837 -0.192247
v -0.000189 -0.099806 -0.180574
v -0.000822 -0.025354 -0.198514
v -0.000825 0.063366 -0.201982
v 0.050585 -0.100241 -0.178944
v 0.050017 -0.024477 -0.188925
v 0.051773 0.054986 -0.192115
vn 0.0160 0.9998 0.0119
vn 0.0009 1.0000 -0.0009
vn 0.0187 0.9689 0.2468
vn -0.0169 0.9694 0.2451
vn 0.6736 0.6601 -0.3325
vn -0.0045 0.8476 -0.5307
vn 0.0756 0.8079 -0.5845
vn -0.5263 0.6855 -0.5032
vn -0.6646 0.7457 -0.0464
vn -0.5546 0.8070 0.2027
vn -0.4204 0.8320 0.3621
vn -0.0045 0.8982 0.4397
vn -0.0457 0.9225 0.3834
vn 0.3837 0.8284 0.4081
vn 0.4243 0.8999 0.1009
vn 0.5758 0.8089 -0.1187
vn 0.2714 -0.3351 0.9022
vn 0.2247 0.3428 0.9122
vn -0.2381 -0.3414 0.9093
vn -0.2243 0.3430 0.9122
vn 0.2922 -0.3175 0.9021
vn 0.3687 -0.3000 0.8798
vn 0.3501 0.1876 0.9177
vn 0.3669 0.1879 0.9111
vn 0.0274 0.3669 0.9299
vn -0.0285 0.3669 0.9298
vn -0.3638 0.1805 0.9138
vn -0.3495 0.1888 0.9177
vn -0.3503 -0.2646 0.8985
vn -0.2788 -0.3156 0.9070
vn -0.1199 -0.4163 0.9013
vn 0.1722 -0.4094 0.8959
vn -0.9833 0.1599 0.0870
vn -0.9977 -0.0599 -0.0318
vn -0.9600 0.1249 -0.2507
vn -0.9820 0.0181 -0.1880
vn -0.8071 -0.3197 0.4964
vn -0.7833 0.0386 0.6205
vn -0.9240 0.0777 0.3743
vn -0.8210 0.1266 0.5567
vn -0.9224 0.3668 -0.1210
vn -0.9407 0.2913 -0.1736
vn -0.8666 0.1136 -0.4859
vn -0.8584 -0.0150 -0.5128
vn -0.8453 0.0391 -0.5329
vn -0.8425 -0.2727 -0.4646
vn -0.8404 -0.5364 -0.0773
vn -0.8035 -0.5208 0.2883
vn -0.0881 -0.9667 -0.2405
vn 0.1138 -0.9308 -0.3473
vn -0.2166 -0.9135 0.3443
vn 0.1791 -0.9304 0.3198
vn -0.2161 -0.8566 -0.4685
vn -0.0627 -0.8020 -0.5940
vn -0.0514 -0.7249 -0.6869
vn -0.0344 -0.8042 -0.5934
vn 0.4514 -0.8562 -0.2513
vn 0.4950 -0.7817 0.3794
vn 0.3256 -0.6537 0.6831
vn 0.2229 -0.6492 0.7272
vn -0.1272 -0.7235 0.6785
vn -0.3673 -0.7131 0.5972
vn -0.4151 -0.8458 0.3351
vn -0.2663 -0.9600 -0.0866
vn 0.9593 0.1222 -0.2545
vn 0.9810 0.0176 -0.1930
vn 0.9831 0.1558 0.0956
vn 0.9977 -0.0588 -0.0334
vn 0.8515 -0.2758 -0.4459
vn 0.8607 0.0385 -0.5076
vn 0.8555 -0.0192 -0.5174
vn 0.8531 0.0774 -0.5160
vn 0.9404 0.2917 -0.1750
vn 0.9222 0.3672 -0.1210
vn 0.8188 0.1315 0.5588
vn 0.9230 0.0776 0.3770
vn 0.8018 -0.0031 0.5975
vn 0.8558 -0.2746 0.4383
vn 0.8511 -0.4104 0.3274
vn 0.8651 -0.4923 -0.0964
vn 0.0062 -0.1100 -0.9939
vn -0.1809 -0.0421 -0.9826
vn 0.0307 -0.1303 -0.9910
vn 0.1859 -0.0435 -0.9816
vn 0.0695 -0.4732 -0.8782
vn -0.4530 0.0036 -0.8915
vn -0.5955 -0.0611 -0.8010
vn -0.5849 0.1350 -0.7998
vn -0.2126 0.2299 -0.9497
vn 0.2143 0.2259 -0.9503
vn 0.6231 0.0909 -0.7769
vn 0.6103 -0.0421 -0.7911
vn 0.4138 0.0215 -0.9101
vn -0.0550 -0.4781 -0.8766
vn -0.0562 -0.5330 -0.8442
vn 0.1071 -0.5299 -0.8413
vn -0.0009 1.0000 -0.0009
vn -0.0160 0.9998 0.0119
vn 0.0169 0.9694 0.2451
vn -0.0178 0.9691 0.2459
vn 0.5248 0.6882 -0.5010
vn -0.0791 0.8076 -0.5844
vn 0.0045 0.8459 -0.5333
vn -0.6741 0.6581 -0.3355
vn -0.5752 0.8092 -0.1199
vn -0.4238 0.9002 0.1003
vn -0.3853 0.8332 0.3966
vn 0.0361 0.9179 0.3952
vn 0.0055 0.8981 0.4397
vn 0.4472 0.8255 0.3443
vn 0.5552 0.8065 0.2033
vn 0.6640 0.7463 -0.0463
vn 0.3107 -0.2977 0.9027
vn 0.0425 0.2041 0.9780
vn -0.3096 -0.2755 0.9101
vn -0.0432 0.2048 0.9779
vn 0.3739 -0.2501 0.8931
vn 0.3590 -0.2932 0.8861
vn 0.3664 0.1990 0.9089
vn 0.3069 0.2524 0.9177
vn -0.0620 0.2940 0.9538
vn 0.0556 0.2987 0.9527
vn -0.2869 0.2616 0.9215
vn -0.3630 0.1983 0.9104
vn -0.3599 -0.2714 0.8926
vn -0.3506 -0.2622 0.8991
vn -0.2378 -0.3156 0.9186
vn 0.2709 -0.3181 0.9085
vn -0.9978 0.0549 -0.0381
vn -0.9900 0.0213 -0.1396
vn -0.9804 0.0697 -0.1843
vn -0.9838 0.0108 -0.1787
vn -0.6107 -0.4130 0.6756
vn -0.9160 -0.1363 0.3774
vn -0.8509 -0.0314 0.5243
vn -0.8584 0.4017 0.3189
vn -0.9534 0.2951 -0.0627
vn -0.9432 0.2860 -0.1690
vn -0.9121 0.2886 -0.2913
vn -0.8844 -0.0443 -0.4646
vn -0.8588 0.0224 -0.5117
vn -0.8133 -0.1445 -0.5636
vn -0.9121 -0.2650 -0.3128
vn -0.8378 -0.4926 0.2354
vn -0.2258 -0.9134 -0.3387
vn 0.2165 -0.9384 -0.2695
vn -0.2407 -0.9154 0.3226
vn 0.2704 -0.8737 0.4043
vn 0.0492 -0.8095 -0.5851
vn 0.1035 -0.7224 -0.6837
vn 0.0998 -0.7933 -0.6007
vn 0.2317 -0.8499 -0.4733
vn 0.2752 -0.9559 -0.1028
vn 0.4378 -0.7843 0.4395
vn 0.4656 -0.6981 0.5440
vn 0.1896 -0.6819 0.7064
vn -0.2029 -0.6575 0.7256
vn -0.3124 -0.6946 0.6480
vn -0.4153 -0.8458 0.3349
vn -0.4224 -0.8802 -0.2163
vn 0.9797 0.0673 -0.1890
vn 0.9836 0.0077 -0.1804
vn 0.9985 0.0398 -0.0389
vn 0.9900 0.0211 -0.1396
vn 0.8253 -0.1548 -0.5431
vn 0.8564 0.0439 -0.5144
vn 0.8644 -0.0288 -0.5019
vn 0.9135 0.2862 -0.2891
vn 0.9440 0.2839 -0.1682
vn 0.9533 0.2956 -0.0627
vn 0.8553 0.4027 0.3261
vn 0.8503 -0.0309 0.5254
vn 0.9117 -0.1585 0.3789
vn 0.6751 -0.3870 0.6280
vn 0.8348 -0.4748 0.2787
vn 0.9143 -0.2628 -0.3082
vn -0.1775 -0.2320 -0.9564
vn -0.1754 -0.0385 -0.9837
vn 0.1842 -0.2288 -0.9559
vn 0.1783 -0.0384 -0.9832
vn -0.4421 -0.1572 -0.8831
vn -0.5933 -0.0876 -0.8002
vn -0.5740 -0.0453 -0.8176
vn -0.5035 0.2099 -0.8381
vn 0.0713 0.4581 -0.8861
vn -0.0746 0.4580 -0.8858
vn 0.5021 0.2059 -0.8400
vn 0.6144 -0.0452 -0.7877
vn 0.6067 -0.0994 -0.7887
vn 0.4027 -0.1897 -0.8954
vn 0.0240 -0.4801 -0.8769
vn 0.0211 -0.4760 -0.8792
s 0
f 45//1 49//1 48//1
f 47//2 49//2 46//2
f 48//3 52//3 51//3
f 50//4 52//4 49//4
f 1//5 45//5 30//5
f 41//6 46//6 45//6
f 39//7 46//7 40//7
f 5//8 47//8 39//8
f 38//9 50//9 47//9
f 37//10 53//10 50//10
f 53//11 7//11 29//11
f 53//12 28//12 52//12
f 51//13 28//13 27//13
f 51//14 3//14 32//14
f 31//15 51//15 32//15
f 30//16 48//16 31//16
f 54//17 58//17 57//17
f 55//18 59//18 58//18
f 58//19 60//19 57//19
f 59//20 61//20 58//20
f 4//21 54//21 35//21
f 22//22 54//22 23//22
f 22//23 56//23 55//23
f 3//24 56//24 21//24
f 56//25 28//25 59//25
f 28//26 62//26 59//26
f 62//27 7//27 20//27
f 62//28 19//28 61//28
f 60//29 19//29 18//29
f 60//30 8//30 33//30
f 57//31 33//31 34//31
f 35//32 57//32 34//32
f 63//33 67//33 66//33
f 65//34 67//34 64//34
f 67//35 69//35 66//35
f 68//36 70//36 67//36
f 18//37 11//37 8//37
f 18//38 64//38 63//38
f 20//39 64//39 19//39
f 7//40 65//40 20//40
f 36//41 68//41 65//41
f 37//42 71//42 68//42
f 71//43 5//43 24//43
f 71//44 25//44 70//44
f 70//45 26//45 69//45
f 69//46 6//46 9//46
f 66//47 9//47 10//47
f 63//48 10//48 11//48
f 73//49 75//49 72//49
f 74//50 76//50 73//50
f 76//51 78//51 75//51
f 77//52 79//52 76//52
f 6//53 72//53 9//53
f 14//54 73//54 72//54
f 12//55 73//55 13//55
f 2//56 74//56 12//56
f 74//57 43//57 77//57
f 77//58 42//58 80//58
f 80//59 4//59 35//59
f 80//60 34//60 79//60
f 78//61 34//61 33//61
f 78//62 8//62 11//62
f 75//63 11//63 10//63
f 72//64 10//64 9//64
f 81//65 85//65 84//65
f 82//66 86//66 85//66
f 85//67 87//67 84//67
f 85//68 89//68 88//68
f 2//69 81//69 44//69
f 17//70 82//70 81//70
f 16//71 83//71 82//71
f 1//72 83//72 15//72
f 83//73 31//73 86//73
f 86//74 32//74 89//74
f 89//75 3//75 21//75
f 88//76 21//76 22//76
f 88//77 23//77 87//77
f 42//78 23//78 4//78
f 84//79 42//79 43//79
f 44//80 84//80 43//80
f 91//81 93//81 90//81
f 92//82 94//82 91//82
f 93//83 97//83 96//83
f 94//84 98//84 97//84
f 6//85 90//85 14//85
f 25//86 90//86 26//86
f 24//87 91//87 25//87
f 5//88 92//88 24//88
f 39//89 95//89 92//89
f 95//90 41//90 98//90
f 98//91 1//91 15//91
f 97//92 15//92 16//92
f 96//93 16//93 17//93
f 96//94 2//94 12//94
f 93//95 12//95 13//95
f 14//96 93//96 13//96
f 45//97 46//97 49//97
f 47//98 50//98 49//98
f 48//99 49//99 52//99
f 50//100 53//100 52//100
f 1//101 41//101 45//101
f 41//102 40//102 46//102
f 39//103 47//103 46//103
f 5//104 38//104 47//104
f 38//105 37//105 50//105
f 37//106 36//106 53//106
f 53//107 36//107 7//107
f 53//108 29//108 28//108
f 51//109 52//109 28//109
f 51//110 27//110 3//110
f 31//111 48//111 51//111
f 30//112 45//112 48//112
f 54//113 55//113 58//113
f 55//114 56//114 59//114
f 58//115 61//115 60//115
f 59//116 62//116 61//116
f 4//117 23//117 54//117
f 22//118 55//118 54//118
f 22//119 21//119 56//119
f 3//120 27//120 56//120
f 56//121 27//121 28//121
f 28//122 29//122 62//122
f 62//123 29//123 7//123
f 62//124 20//124 19//124
f 60//125 61//125 19//125
f 60//126 18//126 8//126
f 57//127 60//127 33//127
f 35//128 54//128 57//128
f 63//129 64//129 67//129
f 65//130 68//130 67//130
f 67//131 70//131 69//131
f 68//132 71//132 70//132
f 18//133 63//133 11//133
f 18//134 19//134 64//134
f 20//135 65//135 64//135
f 7//136 36//136 65//136
f 36//137 37//137 68//137
f 37//138 38//138 71//138
f 71//139 38//139 5//139
f 71//140 24//140 25//140
f 70//141 25//141 26//141
f 69//142 26//142 6//142
f 66//143 69//143 9//143
f 63//144 66//144 10//144
f 73//145 76//145 75//145
f 74//146 77//146 76//146
f 76//147 79//147 78//147
f 77//148 80//148 79//148
f 6//149 14//149 72//149
f 14//150 13//150 73//150
f 12//151 74//151 73//151
f 2//152 44//152 74//152
f 74//153 44//153 43//153
f 77//154 43//154 42//154
f 80//155 42//155 4//155
f 80//156 35//156 34//156
f 78//157 79//157 34//157
f 78//158 33//158 8//158
f 75//159 78//159 11//159
f 72//160 75//160 10//160
f 81//161 82//161 85//161
f 82//162 83//162 86//162
f 85//163 88//163 87//163
f 85//164 86//164 89//164
f 2//165 17//165 81//165
f 17//166 16//166 82//166
f 16//167 15//167 83//167
f 1//168 30//168 83//168
f 83//169 30//169 31//169
f 86//170 31//170 32//170
f 89//171 32//171 3//171
f 88//172 89//172 21//172
f 88//173 22//173 23//173
f 42//174 87//174 23//174
f 84//175 87//175 42//175
f 44//176 81//176 84//176
f 91//177 94//177 93//177
f 92//178 95//178 94//178
f 93//179 94//179 97//179
f 94//180 95//180 98//180
f 6//181 26//181 90//181
f 25//182 91//182 90//182
f 24//183 92//183 91//183
f 5//184 39//184 92//184
f 39//185 40//185 95//185
f 95//186 40//186 41//186
f 98//187 41//187 1//187
f 97//188 98//188 15//188
f 96//189 97//189 16//189
f 96//190 17//190 2//190
f 93//191 96//191 12//191
f 14//192 90//192 93//192
